<svg width="34" height="34" viewBox="0 0 34 34" fill="none" xmlns="http://www.w3.org/2000/svg">
<g clip-path="url(#clip0_8_103)">
<path d="M17 2.83333C20.9058 2.83333 24.0833 6.01092 24.0833 9.91808C24.0833 13.8224 20.9058 17.0014 17 17.0014C13.0942 17.0014 9.91667 13.8224 9.91667 9.91808C9.91667 6.01092 13.0942 2.83333 17 2.83333ZM17 0C11.5232 0 7.08333 4.43983 7.08333 9.91808C7.08333 15.3935 11.5232 19.8347 17 19.8347C22.4768 19.8347 26.9167 15.3935 26.9167 9.91808C26.9167 4.43983 22.4768 0 17 0V0ZM26.0227 18.9167C25.3187 19.6222 24.5253 20.2357 23.6739 20.7612C27.7426 23.4161 29.8761 27.9622 30.7176 31.1681H3.25267C4.063 27.9239 6.16817 23.3722 10.2977 20.7442C9.4435 20.2144 8.65158 19.5953 7.94892 18.8856C1.91675 23.2376 0 30.9357 0 34H34C34 30.9655 31.96 23.2942 26.0227 18.9167Z" fill="white"/>
</g>
<defs>
<clipPath id="clip0_8_103">
<rect width="34" height="34" fill="white"/>
</clipPath>
</defs>
</svg>
