<svg width="32" height="32" viewBox="0 0 32 32" fill="none" xmlns="http://www.w3.org/2000/svg">
<path d="M24 17.9333L26.6667 15.236V21.3333H24V17.9333ZM9.33333 10.6667H11.6573L14.2947 8H9.33333V10.6667ZM11.148 14.9547L25.952 0L32 6.04533L17.1973 21.0027L9.33333 22.6667L11.148 14.9547ZM12.8893 19.1893L15.8627 18.56L28.2373 6.056L25.9613 3.78L13.5707 16.2973L12.8893 19.1893ZM17.3333 29.3333V26.6667H9.33333V29.3333H17.3333ZM6.66667 26.6667H2.66667V24H0V29.3333H6.66667V26.6667ZM24 24V26.6667H20V29.3333H26.6667V24H24ZM0 21.3333H2.66667V16H0V21.3333ZM2.66667 13.3333V10.6667H6.66667V8H0V13.3333H2.66667Z" fill="black"/>
</svg>
