<svg width="53" height="53" viewBox="0 0 53 53" fill="none" xmlns="http://www.w3.org/2000/svg">
<path d="M41.9583 0H11.0417C4.94446 0 0 4.94446 0 11.0417V41.9583C0 48.0555 4.94446 53 11.0417 53H41.9583C48.0577 53 53 48.0555 53 41.9583V11.0417C53 4.94446 48.0577 0 41.9583 0ZM35.3333 15.4583H31.0845C29.7264 15.4583 28.7083 16.0148 28.7083 17.4215V19.875H35.3333L34.8078 26.5H28.7083V44.1667H22.0833V26.5H17.6667V19.875H22.0833V15.6284C22.0833 11.1631 24.433 8.83333 29.7264 8.83333H35.3333V15.4583Z" fill="#EB9600"/>
</svg>
