<svg width="30" height="30" viewBox="0 0 30 30" fill="none" xmlns="http://www.w3.org/2000/svg">
<path fill-rule="evenodd" clip-rule="evenodd" d="M15 26.9913C7.9625 20.0675 1.25 14.12 1.25 8.98875C1.25 4.25 5.085 2.5 7.85125 2.5C9.49125 2.5 13.04 3.12625 15 8.07125C16.9875 3.11125 20.58 2.5125 22.1575 2.5125C25.3325 2.5125 28.75 4.53875 28.75 8.98875C28.75 14.075 22.33 19.77 15 26.9913ZM22.1575 1.2625C19.4037 1.2625 16.6 2.565 15 5.31C13.3938 2.5525 10.5975 1.25 7.85125 1.25C3.8725 1.25 0 3.98375 0 8.98875C0 14.815 6.96375 20.775 15 28.75C23.0375 20.775 30 14.815 30 8.98875C30 3.975 26.1313 1.2625 22.1575 1.2625Z" fill="black"/>
</svg>
