<svg width="53" height="53" viewBox="0 0 53 53" fill="none" xmlns="http://www.w3.org/2000/svg">
<path d="M41.9583 0H11.0417C4.94446 0 0 4.94446 0 11.0417V41.9583C0 48.0555 4.94446 53 11.0417 53H41.9583C48.0577 53 53 48.0555 53 41.9583V11.0417C53 4.94446 48.0577 0 41.9583 0ZM17.6667 41.9583H11.0417V17.6667H17.6667V41.9583ZM14.3542 14.8665C12.2209 14.8665 10.4896 13.1219 10.4896 10.971C10.4896 8.82008 12.2209 7.0755 14.3542 7.0755C16.4874 7.0755 18.2188 8.82008 18.2188 10.971C18.2188 13.1219 16.4896 14.8665 14.3542 14.8665ZM44.1667 41.9583H37.5417V29.5828C37.5417 22.1452 28.7083 22.7083 28.7083 29.5828V41.9583H22.0833V17.6667H28.7083V21.5644C31.7912 15.8536 44.1667 15.4318 44.1667 27.0322V41.9583Z" fill="#EB9600"/>
</svg>
