<svg width="75" height="86" viewBox="0 0 75 86" fill="none" xmlns="http://www.w3.org/2000/svg">
<circle cx="37.5" cy="43.5" r="37.5" fill="#FFA505"/>
<mask id="mask0_8_105" style="mask-type:alpha" maskUnits="userSpaceOnUse" x="11" y="22" width="53" height="42">
<path d="M50.553 63H37.899L24.504 42.708V63H11.85V22.644H24.504L37.899 43.278V22.644H50.553V63ZM59.1799 63.288C57.7879 63.288 56.6719 62.916 55.8319 62.172C54.9919 61.428 54.5719 60.492 54.5719 59.364C54.5719 58.212 54.9919 57.264 55.8319 56.52C56.6719 55.752 57.7879 55.368 59.1799 55.368C60.5479 55.368 61.6519 55.752 62.4919 56.52C63.3319 57.264 63.7519 58.212 63.7519 59.364C63.7519 60.492 63.3319 61.428 62.4919 62.172C61.6519 62.916 60.5479 63.288 59.1799 63.288Z" fill="white"/>
</mask>
<g mask="url(#mask0_8_105)">
<path d="M50.553 63H37.899L24.504 42.708V63H11.85V22.644H24.504L37.899 43.278V22.644H50.553V63ZM59.1799 63.288C57.7879 63.288 56.6719 62.916 55.8319 62.172C54.9919 61.428 54.5719 60.492 54.5719 59.364C54.5719 58.212 54.9919 57.264 55.8319 56.52C56.6719 55.752 57.7879 55.368 59.1799 55.368C60.5479 55.368 61.6519 55.752 62.4919 56.52C63.3319 57.264 63.7519 58.212 63.7519 59.364C63.7519 60.492 63.3319 61.428 62.4919 62.172C61.6519 62.916 60.5479 63.288 59.1799 63.288Z" fill="white"/>
<path d="M16.5 36C16 32 16.5 31.5 10 28V65H18V62.5C18 61.8333 18.2 60.2 19 59C20 57.5 19.5 56 19 53.5C18.6 51.5 17.1667 50.3333 16.5 50C15.6667 48.8333 14 45.9 14 43.5C14 40.5 17 40 16.5 36Z" fill="url(#paint0_linear_8_105)"/>
<path d="M44 30C42 28 42.5 28 44 20H52V65H47.5C46.8333 64.1667 42 66 43 62.5C43.8795 59.4216 44.5149 59.4403 45 57.5C46 53.5 46 56 47 53.5C47.3714 52.5715 47.5 50.5 47.5 49C47.5 47.5 45.5 47 45 46.5C44.5 46 44.7631 43.1492 46 41.5C47.5 39.5 46.8988 38.1134 47 37C47.5 31.5 46 32 44 30Z" fill="url(#paint1_linear_8_105)"/>
</g>
<defs>
<linearGradient id="paint0_linear_8_105" x1="31" y1="20" x2="31" y2="65" gradientUnits="userSpaceOnUse">
<stop stop-color="#FFC224"/>
<stop offset="1" stop-color="#D3483F"/>
</linearGradient>
<linearGradient id="paint1_linear_8_105" x1="31" y1="20" x2="31" y2="65" gradientUnits="userSpaceOnUse">
<stop stop-color="#FFC224"/>
<stop offset="1" stop-color="#D3483F"/>
</linearGradient>
</defs>
</svg>
