<svg width="30" height="30" viewBox="0 0 30 30" fill="none" xmlns="http://www.w3.org/2000/svg">
<g clip-path="url(#clip0_16_84)">
<path fill-rule="evenodd" clip-rule="evenodd" d="M15 10.8325C12.7025 10.8325 10.8337 12.7025 10.8337 15C10.8337 17.2975 12.7025 19.1663 15 19.1663C17.2975 19.1663 19.1663 17.2975 19.1663 15C19.1663 12.7025 17.2975 10.8325 15 10.8325ZM15 20.4163C12.0125 20.4163 9.58375 17.9875 9.58375 15C9.58375 12.0125 12.0125 9.5825 15 9.5825C17.9875 9.5825 20.4163 12.0125 20.4163 15C20.4163 17.9875 17.9875 20.4163 15 20.4163ZM13.5087 28.75H16.4912C16.965 27.37 17.3263 25.6863 19.125 24.9375C20.995 24.1663 22.4575 25.1825 23.6687 25.7775L25.7763 23.6675C25.1413 22.3587 24.1938 20.9188 24.94 19.1163C25.6488 17.405 27.1138 17.0375 28.75 16.4925V13.5075C27.2062 12.9812 25.6612 12.6225 24.9412 10.885C24.2262 9.16 25.0125 7.89125 25.7775 6.33125L23.6687 4.22375C22.2725 4.9075 20.8925 5.795 19.1163 5.05875C17.3988 4.345 17.0462 2.89125 16.4912 1.25H13.5087C12.9788 2.78875 12.6287 4.335 10.885 5.0575C10.4288 5.24875 9.9875 5.34 9.53875 5.34C8.485 5.34 7.615 4.85 6.33125 4.22375L4.2225 6.33125C4.94 7.8 5.78625 9.1275 5.05875 10.885C4.345 12.6038 2.89125 12.9525 1.25 13.5075V16.4925C2.7825 17.015 4.335 17.3738 5.05875 19.115C5.785 20.8687 4.965 22.155 4.2225 23.6687L6.33125 25.7775C8.14375 24.8713 9.275 24.2725 10.8837 24.9412C12.6062 25.6562 12.9525 27.1138 13.5087 28.75ZM17.3762 30H12.6225C11.7712 27.6025 11.6412 26.6088 10.4062 26.0963C9.15 25.5725 8.2425 26.2613 6.07375 27.2863L2.7125 23.925C3.80375 21.6287 4.42125 20.8438 3.90375 19.5938C3.38875 18.355 2.41375 18.235 0 17.3775V12.6225C2.3825 11.775 3.39 11.645 3.90375 10.4062C4.4175 9.1675 3.815 8.39 2.7125 6.07375L6.07375 2.71375C8.25 3.74875 9.15625 4.42 10.405 3.905C11.645 3.39 11.7575 2.42375 12.6237 0H17.3762C18.2288 2.3975 18.3612 3.3925 19.5938 3.90375C20.845 4.42375 21.73 3.755 23.9275 2.71375L27.2863 6.07375C26.1888 8.3825 25.585 9.17 26.0963 10.405C26.61 11.645 27.5863 11.7637 30 12.6225V17.3787C27.6175 18.225 26.6087 18.3562 26.095 19.595C25.5912 20.8137 26.15 21.5462 27.2875 23.925L23.9275 27.2863C21.7675 26.2613 20.8438 25.5738 19.6075 26.0925C18.3725 26.605 18.2575 27.525 17.3762 30Z" fill="black"/>
</g>
<defs>
<clipPath id="clip0_16_84">
<rect width="30" height="30" fill="white"/>
</clipPath>
</defs>
</svg>
