<svg width="53" height="53" viewBox="0 0 53 53" fill="none" xmlns="http://www.w3.org/2000/svg">
<path d="M41.9583 0H11.0417C4.94446 0 0 4.94446 0 11.0417V41.9583C0 48.0555 4.94446 53 11.0417 53H41.9583C48.0577 53 53 48.0555 53 41.9583V11.0417C53 4.94446 48.0577 0 41.9583 0ZM41.6514 20.3984C42.1129 30.5942 34.5096 41.9627 21.0476 41.9627C16.9534 41.9627 13.144 40.7636 9.93529 38.7055C13.7822 39.1582 17.6203 38.0915 20.6678 35.7043C17.4944 35.6447 14.8179 33.549 13.897 30.6693C15.0343 30.8857 16.1518 30.8217 17.1698 30.5457C13.6828 29.8456 11.278 26.7054 11.3553 23.3465C12.3313 23.8897 13.451 24.2166 14.6368 24.2541C11.4105 22.0966 10.4962 17.8345 12.3932 14.575C15.9685 18.9607 21.3104 21.847 27.3347 22.1496C26.277 17.6159 29.7197 13.25 34.3992 13.25C36.4817 13.25 38.3676 14.1289 39.6882 15.54C41.34 15.2154 42.8925 14.6125 44.2948 13.7822C43.7515 15.476 42.6032 16.896 41.1081 17.7925C42.5745 17.6159 43.9723 17.2272 45.2708 16.6508C44.3014 18.0995 43.0713 19.3759 41.6514 20.3984Z" fill="#EB9600"/>
</svg>
