<svg width="30" height="30" viewBox="0 0 30 30" fill="none" xmlns="http://www.w3.org/2000/svg">
<g clip-path="url(#clip0_16_87)">
<path fill-rule="evenodd" clip-rule="evenodd" d="M26.2462 23.1612C25.7812 23.44 24.9412 23.8675 23.75 24.2913V17.9938C18.7762 18.4025 15.8462 19.895 15 20.4363C14.1537 19.895 11.2225 18.4025 6.24998 17.9938V24.29C5.05748 23.8662 4.21873 23.4388 3.75498 23.1625L3.74998 20.7325C3.73998 18.1875 3.82498 17.5688 6.07873 17.0712C8.92873 16.4375 11.8487 16.1025 12.61 14.1675C12.9625 13.2762 12.7562 12.2812 12 11.2113C10.015 8.40375 9.49123 5.76125 10.5212 3.77125C11.3275 2.21625 13.0437 1.25 15 1.25C16.9525 1.25 18.665 2.2075 19.4662 3.74875C20.5 5.7325 19.9775 8.385 17.9975 11.215C17.2475 12.2863 17.045 13.28 17.3962 14.1675C18.155 16.085 21.0575 16.4362 23.92 17.0712C26.1762 17.5688 26.2612 18.1938 26.2487 20.7675L26.2462 23.1612ZM22.5 26.2425C20.515 26.6012 17.6837 27.3988 15.625 28.29V21.5013C17.145 20.5225 20.2075 19.6613 22.5 19.3675V26.2425ZM14.375 28.29C12.315 27.3988 9.48498 26.6012 7.49998 26.2425V19.3675C9.79248 19.6613 12.855 20.5225 14.375 21.5013V28.29ZM24.1887 15.85C20.6075 15.06 17.11 14.6612 19.0225 11.9325C23.8787 4.98875 19.9 0 15 0C10.1 0 6.09998 5.0275 10.9775 11.9325C12.9237 14.6862 9.31748 15.0775 5.80998 15.85C2.60998 16.5575 2.48998 18.0788 2.49998 20.7375L2.50498 23.8313C2.50498 23.8313 3.70123 24.7787 6.24998 25.62V27.31C6.43498 27.3375 10.7125 27.8813 15 29.9738C19.2862 27.8825 23.5825 27.335 23.75 27.31V25.62C26.2987 24.7787 27.495 23.8313 27.495 23.8313L27.4987 20.7675C27.5112 18.0888 27.4025 16.56 24.1887 15.85Z" fill="black"/>
</g>
<defs>
<clipPath id="clip0_16_87">
<rect width="30" height="30" fill="white"/>
</clipPath>
</defs>
</svg>
